<svg id="Слой_1" data-name="Слой 1" xmlns="http://www.w3.org/2000/svg" viewBox="0 0 800.42 800.42"><defs><style>.cls-1{fill:#ececec;stroke:#ececec;stroke-miterlimit:1.67;stroke-width:0.42px;fill-rule:evenodd;}</style></defs><g id="SVGRepo_iconCarrier" data-name="SVGRepo iconCarrier"><path class="cls-1" d="M753.41,530.51c-28.61,20.19-78.64,48.56-143.3,66.07a117.55,117.55,0,0,0-81.69-91.29A751.8,751.8,0,0,0,412,479.59a163.53,163.53,0,0,0,56.66-101.32c9.13-.33,18.68-.51,29.6-.51a708.56,708.56,0,0,1,204.56,31.43c30.26,9.32,50.64,36.57,50.64,67.86v53.46ZM565.17,671.69c-47.57,33.64-137.6,82.54-258.82,82.54-53.93,0-158-10.92-258.82-82.54V618c0-31.25,20.42-58.54,50.73-67.86A710.28,710.28,0,0,1,306.35,519h3.53a708.25,708.25,0,0,1,204.75,31.29c30.21,9.27,50.54,36.52,50.54,67.77v53.65ZM188.7,354.23V307.17a117.65,117.65,0,0,1,235.3,0v47.06a117.65,117.65,0,0,1-235.3,0ZM494.58,48.34A117.86,117.86,0,0,1,612.23,166v47.06A117.75,117.75,0,0,1,494.58,330.7,112.51,112.51,0,0,1,471.06,328V307.17c0-65.18-38.36-121.13-93.42-147.81,3.49-61.7,54.36-111,116.94-111Zm222,315.86A758.42,758.42,0,0,0,600,338.51c35.91-30.21,59.25-74.92,59.25-125.46V166A164.91,164.91,0,0,0,494.58,1.29C411,1.29,342.44,64.2,332,145.1c-8.43-1.37-16.85-2.64-25.65-2.64-90.82,0-164.71,73.93-164.71,164.71v47.06c0,50.54,23.34,95.24,59.3,125.5A755.54,755.54,0,0,0,84.47,505.19C34.26,520.63.47,566,.47,618V695.4l9.41,7.06c114.68,86,234.92,98.83,296.47,98.83,143.43,0,247.34-61.93,296.47-98.83l9.41-7.06V645.19c85.51-21.08,148.19-60.85,178.83-83.9l9.41-7.06V477.05c0-52.09-33.74-97.46-83.86-112.85Z" transform="translate(-0.26 -1.08)"/></g></svg>