<svg id="Слой_1" data-name="Слой 1" xmlns="http://www.w3.org/2000/svg" viewBox="0 0 148.45 195.13"><defs><style>.cls-1,.cls-10,.cls-2,.cls-5{fill:#ececec;}.cls-10,.cls-14,.cls-2,.cls-3,.cls-5,.cls-6,.cls-7,.cls-8,.cls-9{stroke:#ececec;}.cls-10,.cls-12,.cls-13,.cls-14,.cls-15,.cls-16,.cls-2,.cls-3,.cls-4,.cls-5,.cls-6,.cls-7,.cls-8{stroke-linecap:round;stroke-linejoin:round;}.cls-2,.cls-3{stroke-width:0.75px;}.cls-11,.cls-12,.cls-13,.cls-14,.cls-15,.cls-16,.cls-3,.cls-4,.cls-6,.cls-7,.cls-8{fill:none;}.cls-11,.cls-12,.cls-13,.cls-4{stroke:#000;}.cls-10,.cls-4,.cls-6{stroke-width:0.5px;}.cls-14,.cls-5{stroke-width:0.36px;}.cls-13,.cls-7{stroke-width:0.35px;}.cls-11,.cls-12,.cls-15,.cls-16,.cls-8{stroke-width:0.25px;}.cls-11,.cls-9{stroke-miterlimit:10;}.cls-15{stroke:#1d1d1b;}.cls-16{stroke:#fff;}</style></defs><polygon class="cls-1" points="29.69 69.28 25.36 71.98 0 31.46 34.01 66.58 29.69 69.28"/><polygon class="cls-1" points="16.76 65.9 21.09 63.2 46.45 103.72 12.44 68.6 16.76 65.9"/><path class="cls-2" d="M74.91,164.06c1.9-.1,4.75,2.4,7.61,4.77l23,21.51c15.27,13.22,9.58-4.79,9.58-4.79L85,108.06l-5-4-1-74.36H70.49L70,102.63,65,108.07,34.94,185.56s-5.69,18,9.58,4.78l23-21.51c2.86-2.37,5.71-4.87,7.61-4.77" transform="translate(-1.54 -0.44)"/><polygon class="cls-1" points="118.76 69.28 123.09 71.98 148.45 31.46 114.44 66.58 118.76 69.28"/><polygon class="cls-1" points="131.69 65.9 127.36 63.2 102 103.72 136.01 68.6 131.69 65.9"/><polyline class="cls-3" points="68.42 101.74 68.42 114.41 78.41 114.41 78.41 103.1"/><path class="cls-2" d="M70.48,29.72a5.91,5.91,0,0,0-3.67-6.08l5-21s2.84-4.07,5.85,0l5,21a5.91,5.91,0,0,0-3.66,6.08" transform="translate(-1.54 -0.44)"/><circle class="cls-4" cx="75.1" cy="8.39" r="1"/><circle class="cls-4" cx="76.51" cy="14.83" r="1"/><circle class="cls-4" cx="78.09" cy="21.26" r="1"/><circle class="cls-4" cx="69.76" cy="14.83" r="1"/><circle class="cls-4" cx="71.19" cy="8.4" r="1"/><circle class="cls-4" cx="68.28" cy="21.26" r="1"/><path class="cls-5" d="M67.21,21l-1.08-.32s-1-3.23-1.86,0c-.76,3,1.54,1.44,1.54,1.44l.16-.51,1.24.18" transform="translate(-1.54 -0.44)"/><line class="cls-5" x1="64.43" y1="21.14" x2="64.59" y2="20.21"/><path class="cls-5" d="M68.75,14.53l-1.08-.32s-1-3.23-1.85,0c-.77,3,1.53,1.45,1.53,1.45l.16-.52,1.24.18" transform="translate(-1.54 -0.44)"/><line class="cls-5" x1="65.97" y1="14.71" x2="66.13" y2="13.78"/><path class="cls-5" d="M70.29,7.93l-1.07-.32s-1-3.24-1.86,0c-.76,3,1.54,1.44,1.54,1.44l.16-.51,1.23.17" transform="translate(-1.54 -0.44)"/><line class="cls-5" x1="67.52" y1="8.1" x2="67.68" y2="7.17"/><path class="cls-5" d="M82.14,20.87l1.08-.32s1-3.23,1.86,0c.76,3-1.54,1.44-1.54,1.44l-.16-.51-1.24.18" transform="translate(-1.54 -0.44)"/><line class="cls-5" x1="81.84" y1="21.05" x2="81.68" y2="20.12"/><path class="cls-5" d="M80.6,14.45l1.08-.33s1-3.23,1.85,0c.77,3-1.53,1.45-1.53,1.45l-.16-.52-1.24.18" transform="translate(-1.54 -0.44)"/><line class="cls-5" x1="80.3" y1="14.62" x2="80.14" y2="13.69"/><path class="cls-5" d="M79.06,7.84l1.07-.32s1-3.24,1.86,0c.76,3-1.54,1.44-1.54,1.44l-.16-.51-1.23.17" transform="translate(-1.54 -0.44)"/><line class="cls-5" x1="78.75" y1="8.01" x2="78.59" y2="7.08"/><line class="cls-3" x1="68.9" y1="35.89" x2="77.47" y2="35.89"/><line class="cls-3" x1="68.9" y1="42.05" x2="77.47" y2="42.05"/><line class="cls-3" x1="68.81" y1="48.14" x2="77.64" y2="48.14"/><line class="cls-3" x1="68.77" y1="53.44" x2="77.71" y2="53.44"/><line class="cls-3" x1="68.73" y1="58.91" x2="77.79" y2="58.91"/><line class="cls-6" x1="68.7" y1="63.59" x2="77.85" y2="63.59"/><line class="cls-6" x1="68.67" y1="68.37" x2="77.92" y2="68.37"/><line class="cls-6" x1="68.63" y1="73.1" x2="77.98" y2="73.1"/><line class="cls-6" x1="68.6" y1="77.15" x2="78.04" y2="77.15"/><line class="cls-6" x1="68.57" y1="80.96" x2="78.09" y2="80.96"/><line class="cls-6" x1="68.55" y1="84.67" x2="78.14" y2="84.67"/><line class="cls-7" x1="68.52" y1="88.03" x2="78.19" y2="88.03"/><line class="cls-8" x1="68.5" y1="91.51" x2="78.24" y2="91.51"/><line class="cls-8" x1="68.48" y1="94.18" x2="78.27" y2="94.18"/><line class="cls-8" x1="68.46" y1="97.57" x2="78.32" y2="97.57"/><line class="cls-8" x1="68.44" y1="100.25" x2="78.36" y2="100.25"/><line class="cls-8" x1="68.42" y1="102.79" x2="78.39" y2="102.79"/><line class="cls-8" x1="68.42" y1="105.04" x2="78.41" y2="105.04"/><line class="cls-8" x1="68.42" y1="107.52" x2="78.41" y2="107.52"/><line class="cls-8" x1="68.42" y1="109.65" x2="78.41" y2="109.65"/><line class="cls-8" x1="68.42" y1="112.02" x2="78.41" y2="112.02"/><circle class="cls-8" cx="73.29" cy="45.12" r="0.81"/><circle class="cls-8" cx="73.28" cy="56.18" r="0.72"/><circle class="cls-8" cx="73.28" cy="65.98" r="0.57"/><circle class="cls-8" cx="73.28" cy="75.12" r="0.6"/><circle class="cls-8" cx="70.8" cy="86.35" r="0.6"/><circle class="cls-8" cx="75.92" cy="86.35" r="0.6"/><circle class="cls-8" cx="73.46" cy="95.88" r="0.58"/><circle class="cls-8" cx="73.46" cy="101.52" r="0.58"/><circle class="cls-8" cx="73.46" cy="106.28" r="0.56"/><circle class="cls-8" cx="73.46" cy="110.84" r="0.5"/><path class="cls-9" d="M79.9,115.19H85s22.22,56.92,24.55,61.93.52,4.16.52,4.16L83.88,163.22V150.29h-20c-.52.56-1.33,1.41-2.39,2.39-1.66,1.54-2.5,2.31-2.95,2.11-.23-.11-.81-.66.22-5Q60.51,141,62.15,132q1.56-8.49,3-16.82H79.9Z" transform="translate(-1.54 -0.44)"/><path class="cls-10" d="M68.52,117.18H81.78a3.48,3.48,0,0,1,0,3.39H68.52A2.37,2.37,0,0,1,68.52,117.18Z" transform="translate(-1.54 -0.44)"/><path class="cls-10" d="M68.52,121.1H81.78a3.5,3.5,0,0,1,0,3.4H68.52A2.38,2.38,0,0,1,68.52,121.1Z" transform="translate(-1.54 -0.44)"/><circle class="cls-11" cx="68.32" cy="118.54" r="0.64"/><circle class="cls-11" cx="70.5" cy="118.54" r="0.64"/><circle class="cls-11" cx="72.69" cy="118.54" r="0.64"/><circle class="cls-11" cx="74.88" cy="118.54" r="0.64"/><circle class="cls-11" cx="76.95" cy="118.54" r="0.64"/><circle class="cls-11" cx="79.01" cy="118.54" r="0.64"/><circle class="cls-11" cx="68.32" cy="122.46" r="0.64"/><circle class="cls-11" cx="70.5" cy="122.46" r="0.64"/><circle class="cls-11" cx="72.69" cy="122.46" r="0.64"/><circle class="cls-11" cx="74.88" cy="122.46" r="0.64"/><circle class="cls-11" cx="76.95" cy="122.46" r="0.64"/><circle class="cls-11" cx="79.01" cy="122.46" r="0.64"/><path class="cls-10" d="M68.39,134.45H81.65a3.48,3.48,0,0,1,0,3.39H68.39A2.36,2.36,0,0,1,68.39,134.45Z" transform="translate(-1.54 -0.44)"/><path class="cls-10" d="M68.39,138.37H81.65a3.48,3.48,0,0,1,0,3.39H68.39A2.36,2.36,0,0,1,68.39,138.37Z" transform="translate(-1.54 -0.44)"/><circle class="cls-12" cx="68.19" cy="135.8" r="0.64"/><circle class="cls-12" cx="70.37" cy="135.8" r="0.64"/><circle class="cls-12" cx="72.56" cy="135.8" r="0.64"/><circle class="cls-12" cx="74.75" cy="135.8" r="0.64"/><circle class="cls-12" cx="76.82" cy="135.8" r="0.64"/><circle class="cls-12" cx="78.88" cy="135.8" r="0.64"/><circle class="cls-12" cx="68.19" cy="139.72" r="0.64"/><circle class="cls-12" cx="70.37" cy="139.72" r="0.64"/><circle class="cls-12" cx="72.56" cy="139.72" r="0.64"/><circle class="cls-12" cx="74.75" cy="139.72" r="0.64"/><circle class="cls-12" cx="76.82" cy="139.72" r="0.64"/><circle class="cls-12" cx="78.88" cy="139.72" r="0.64"/><circle class="cls-10" cx="92.41" cy="148.41" r="2.26"/><circle class="cls-10" cx="88.18" cy="154.63" r="2.26"/><circle class="cls-10" cx="95.48" cy="157.24" r="2.26"/><rect class="cls-13" x="64.67" y="152.42" width="17.01" height="2.52" rx="1.26"/><circle class="cls-12" cx="79.94" cy="153.68" r="0.33"/><circle class="cls-12" cx="66.46" cy="153.68" r="0.33"/><rect class="cls-7" x="66.13" y="145.45" width="14.13" height="2.29" rx="0.56"/><circle class="cls-14" cx="67.37" cy="146.57" r="0.33"/><circle class="cls-14" cx="79.02" cy="146.59" r="0.33"/><path class="cls-15" d="M73.89,29.72" transform="translate(-1.54 -0.44)"/><path class="cls-16" d="M74.1,152.8" transform="translate(-1.54 -0.44)"/></svg>